<?xml version="1.0" encoding="UTF-8" standalone="no"?>
<!-- Created with Inkscape (http://www.inkscape.org/) -->

<svg
   xmlns:dc="http://purl.org/dc/elements/1.1/"
   xmlns:cc="http://creativecommons.org/ns#"
   xmlns:rdf="http://www.w3.org/1999/02/22-rdf-syntax-ns#"
   xmlns:svg="http://www.w3.org/2000/svg"
   xmlns="http://www.w3.org/2000/svg"
   xmlns:sodipodi="http://sodipodi.sourceforge.net/DTD/sodipodi-0.dtd"
   xmlns:inkscape="http://www.inkscape.org/namespaces/inkscape"
   width="100mm"
   height="100mm"
   viewBox="0 0 100 100"
   version="1.1"
   id="svg4977"
   sodipodi:docname="logo.svg"
   inkscape:export-filename="/home/user/go/src/github.com/mongoeye/mongoeye/_misc/logo/logo.png"
   inkscape:export-xdpi="599.948"
   inkscape:export-ydpi="599.948"
   inkscape:version="0.92.1 r15371">
  <defs
     id="defs4971" />
  <sodipodi:namedview
     id="base"
     pagecolor="#ffffff"
     bordercolor="#666666"
     borderopacity="1.0"
     inkscape:pageopacity="0.0"
     inkscape:pageshadow="2"
     inkscape:zoom="0.70710678"
     inkscape:cx="259.97018"
     inkscape:cy="44.367967"
     inkscape:document-units="mm"
     inkscape:current-layer="layer1"
     showgrid="false"
     inkscape:window-width="1366"
     inkscape:window-height="748"
     inkscape:window-x="0"
     inkscape:window-y="0"
     inkscape:window-maximized="0" />
  <metadata
     id="metadata4974">
    <rdf:RDF>
      <cc:Work
         rdf:about="">
        <dc:format>image/svg+xml</dc:format>
        <dc:type
           rdf:resource="http://purl.org/dc/dcmitype/StillImage" />
        <dc:title />
      </cc:Work>
    </rdf:RDF>
  </metadata>
  <g
     inkscape:label="Layer 1"
     inkscape:groupmode="layer"
     id="layer1"
     transform="translate(0,-197)">
    <rect
       style="opacity:1;fill:#2f2d2b;fill-opacity:1;fill-rule:nonzero;stroke:none;stroke-width:533.92022705;stroke-linecap:butt;stroke-miterlimit:4;stroke-dasharray:none;stroke-dashoffset:0;stroke-opacity:1"
       id="rect5000"
       width="100.00194"
       height="100.00077"
       x="-0.0010335286"
       y="196.99883" />
    <path
       style="fill:#2cabd4;fill-opacity:1;stroke-width:0.95636111"
       d="m 87.376538,243.70992 c -1.443187,-0.45908 -3.000153,-0.87745 -4.70522,-1.24775 -1.705068,-0.3703 -3.559127,-0.69308 -5.59807,-0.95823 -2.038952,-0.26516 -4.262788,-0.47277 -6.707611,-0.61641 -2.444822,-0.14363 -5.109235,-0.22213 -8.031932,-0.22788 -5.845413,-0.0115 -12.718254,0.26938 -20.907326,0.90593 -8.189052,0.63655 -17.806698,0.17663 -28.80291,3.39213 1.553733,-0.0476 3.043973,0.2796 4.045857,1.46813 1.970104,2.51523 12.844676,15.48423 34.955746,16.54579 21.133094,1.01461 33.379002,-15.54885 34.43274,-17.03145 0.0077,-0.003 0.01444,-0.008 0.02238,-0.0112 0.02773,-0.0435 0.05509,-0.0871 0.08215,-0.13076 0.01176,-0.0169 0.100867,-0.13635 0.100867,-0.13635 -0.0029,-0.001 -0.0086,-0.002 -0.01119,-0.004 0.440156,-0.63244 0.815805,-1.28327 1.12447,-1.94822 z"
       id="path1173"
       inkscape:connector-curvature="0"
       sodipodi:nodetypes="cscsssccsccccccc" />
    <path
       style="fill:#2394bd;fill-opacity:1;stroke-width:0.95636111"
       d="m 53.065218,225.69973 c -2.268059,0.0426 -4.657632,0.2627 -7.16897,0.69486 -19.461949,4.40882 -25.821377,14.85154 -28.307916,15.97048 -1.786942,1.07881 -3.678605,2.02934 -4.964863,2.59264 11.108498,-1.41899 20.613963,-2.41574 28.80291,-3.05401 8.188938,-0.63826 15.061913,-0.91742 20.907326,-0.90592 2.922697,0.006 5.58711,0.0842 8.031932,0.22788 2.444823,0.14363 4.668659,0.35125 6.707611,0.6164 2.038943,0.26516 3.893002,0.58793 5.59807,0.95823 1.705067,0.3703 3.262033,0.78867 4.70522,1.24775 -0.473953,-0.91659 -1.076098,-1.80262 -1.798781,-2.6468 0.0019,-0.004 0.0057,-0.007 0.0076,-0.0112 0,0 -10.595438,-16.10217 -32.520017,-15.6903 z"
       id="path173-6"
       inkscape:connector-curvature="0" />
    <circle
       style="opacity:1;fill:#ffffff;fill-opacity:1;stroke:none;stroke-width:8.05409336;stroke-linecap:butt;stroke-miterlimit:4;stroke-dasharray:none;stroke-dashoffset:0;stroke-opacity:1"
       id="path206"
       cx="52.74931"
       cy="244.54749"
       r="15.311526" />
    <path
       style="opacity:1;fill:#383f48;fill-opacity:1;stroke:none;stroke-width:1.97892797;stroke-linecap:butt;stroke-miterlimit:4;stroke-dasharray:none;stroke-dashoffset:0;stroke-opacity:1"
       id="path210"
       sodipodi:type="arc"
       sodipodi:cx="-185.40968"
       sodipodi:cy="167.95599"
       sodipodi:rx="8.2656698"
       sodipodi:ry="8.2656698"
       sodipodi:start="5.2243963"
       sodipodi:end="4.2385962"
       d="m -181.3601,160.75029 a 8.2656698,8.2656698 0 0 1 3.92635,9.375 8.2656698,8.2656698 0 0 1 -8.13386,6.09486 8.2656698,8.2656698 0 0 1 -7.89506,-6.40116 8.2656698,8.2656698 0 0 1 4.28165,-9.21815 l 3.77134,7.35515 z"
       transform="rotate(-60)" />
  </g>
</svg>
